<svg width="48" height="48" viewBox="0 0 48 48" fill="none" xmlns="http://www.w3.org/2000/svg">
<rect width="48" height="48" rx="24" fill="#E7C873" fill-opacity="0.933333"/>
<path fill-rule="evenodd" clip-rule="evenodd" d="M23.0769 19.7692C24.6516 19.7696 25.9323 21.0498 25.9323 22.6247C25.9323 23.1998 25.7578 23.7357 25.4636 24.1846L27.6706 26.3903L26.8217 27.2393L24.6081 25.027C24.1648 25.3104 23.6419 25.4813 23.0769 25.4814C21.5018 25.4814 20.2188 24.1998 20.2188 22.6247C20.2188 21.0496 21.5018 19.7692 23.0769 19.7692ZM23.0769 20.9684C22.1631 20.9684 21.4194 21.7118 21.4193 22.6247C21.4193 23.5376 22.1631 24.2822 23.0769 24.2822C23.9895 24.2819 24.7331 23.5374 24.7331 22.6247C24.7331 21.712 23.9894 20.9688 23.0769 20.9684Z" fill="#066174"/>
<path fill-rule="evenodd" clip-rule="evenodd" d="M31.1107 17.333C32.0883 17.333 32.8891 18.1239 32.8894 19.1104L32.8802 27.9997C32.8802 28.9775 32.0885 29.7783 31.1107 29.7783H34.6667V31.5557H13.3334V29.7783H16.8894C15.9027 29.7783 15.1107 28.9775 15.1107 27.9997V19.1104C15.111 18.1239 15.9029 17.333 16.8894 17.333H31.1107ZM21.8672 30.3109H26.1329V28.7106H21.8672V30.3109ZM16.8894 19.1104V27.9997L31.1107 28.0088V19.1104H16.8894Z" fill="#066174"/>
</svg>
